<svg width="69" height="69" viewBox="0 0 69 69" fill="none" xmlns="http://www.w3.org/2000/svg">
<path d="M6.59304 52.4932H62.407C63.5617 52.4932 64.5 51.5543 64.5 50.4002V14.5196C64.5 13.3655 63.5617 12.4266 62.407 12.4266H6.59304C5.43889 12.4266 4.50001 13.3655 4.50001 14.5196V50.4002C4.50001 51.5543 5.43948 52.4932 6.59304 52.4932ZM6.29404 14.5196C6.29404 14.3546 6.42799 14.2206 6.59304 14.2206H62.407C62.572 14.2206 62.706 14.3546 62.706 14.5196V50.4002C62.706 50.5652 62.572 50.6992 62.407 50.6992H6.59304C6.42799 50.6992 6.29404 50.5652 6.29404 50.4002V14.5196ZM69 54.0947V55.7697C69 56.2134 68.64 56.5734 68.1963 56.5734H0.803723C0.360001 56.5734 0 56.2134 0 55.7697V54.0947H28.3378C28.4778 54.5617 28.9059 54.9044 29.4184 54.9044H39.5822C40.0941 54.9044 40.5222 54.5623 40.6628 54.0947H69Z" fill="black"/>
</svg>
