<svg width="64" height="64" viewBox="0 0 64 64" fill="none" xmlns="http://www.w3.org/2000/svg">
<g clip-path="url(#clip0)">
<circle opacity="0.67" cx="43" cy="48" r="15" fill="#F7BD61"/>
<path d="M19.2292 64.0001C23.956 63.998 28.5141 62.2423 32.0213 59.0729C37.9177 64.3728 46.4687 65.495 53.5336 61.8967C60.5985 58.2984 64.7189 50.7224 63.8996 42.8366C63.0803 34.9503 57.491 28.383 49.8374 26.3135C53.0406 18.3038 50.5052 9.14123 43.6397 3.91737C36.7746 -1.30597 27.2675 -1.30597 20.4024 3.91737C13.5374 9.14123 11.0015 18.3038 14.2052 26.3135C4.92239 28.826 -1.06299 37.8256 0.207586 47.3578C1.47816 56.8899 9.61273 64.0064 19.2292 64.0001ZM27.7573 44.8119C27.7547 42.5295 28.2127 40.2705 29.1044 38.1697C31.0349 38.4976 33.0072 38.4976 34.9377 38.1697C37.4924 44.1951 36.3577 51.1528 32.0213 56.055C29.2751 52.9538 27.7583 48.9547 27.7573 44.8119ZM33.9102 36.1772C32.6553 36.325 31.3873 36.325 30.1324 36.1772C30.6784 35.2501 31.3108 34.3767 32.0213 33.5684C32.7313 34.3767 33.3637 35.2501 33.9102 36.1772ZM33.5266 32.0636C37.1145 28.8416 41.9116 27.3118 46.7024 27.8625C44.3788 31.8002 40.5749 34.6427 36.1401 35.7561C35.4177 34.4251 34.5401 33.1842 33.5266 32.0594V32.0636ZM27.902 35.7644C23.4662 34.6495 19.6617 31.8033 17.3403 27.8625C22.1295 27.3097 26.9265 28.8359 30.516 32.0547C29.5015 33.1827 28.6244 34.4267 27.902 35.7602V35.7644ZM61.8696 44.8119C61.881 51.5229 57.9491 57.615 51.8289 60.369C45.7082 63.123 38.5412 62.0248 33.5266 57.5645C38.3877 52.1642 39.7525 44.4684 37.0443 37.7262C42.1333 36.338 46.4301 32.9229 48.9312 28.2789C56.5229 30.1741 61.8545 36.9871 61.8696 44.8119ZM32.0213 2.17157C37.7397 2.17157 43.0775 5.03751 46.237 9.80384C49.396 14.5702 49.9571 20.6029 47.7299 25.87C42.0531 24.9403 36.2635 26.6658 32.0213 30.5509C27.7791 26.6658 21.9895 24.9403 16.3122 25.87C14.0855 20.6029 14.6461 14.5702 17.8056 9.80384C20.9651 5.03751 26.303 2.17157 32.0213 2.17157ZM15.1099 28.2789C17.6114 32.9229 21.9083 36.338 26.9973 37.7262C24.2886 44.4684 25.6534 52.1642 30.5149 57.5645C25.2198 62.2595 17.5734 63.1928 11.3049 59.9084C5.03586 56.6244 1.45005 49.8073 2.29536 42.7809C3.14067 35.7545 8.24117 29.9825 15.1099 28.2789Z" fill="black"/>
</g>
<defs>
<clipPath id="clip0">
<rect width="64" height="64" fill="white"/>
</clipPath>
</defs>
</svg>
