<svg width="64" height="64" viewBox="0 0 64 64" fill="none" xmlns="http://www.w3.org/2000/svg">
<path d="M46.2878 40.8501H50.8972V43.8751C50.8972 47.7672 47.9551 50.9334 44.3404 50.9334H19.0502C15.4355 50.9334 12.4934 47.7672 12.4934 43.8751V42.8668H5V43.8751C5 52.215 11.3029 59 19.0502 59H44.3404C52.0877 59 58.3906 52.215 58.3906 43.8751V40.8501H63L54.6439 28L46.2878 40.8501ZM56.5173 38.8335V43.8751C56.5173 51.1028 51.0546 56.9833 44.3404 56.9833H19.0502C12.6508 56.9833 7.38946 51.6422 6.90895 44.8834H10.6725C11.1399 49.4148 14.718 52.95 19.0502 52.95H44.3404C48.9892 52.95 52.7705 48.8784 52.7705 43.8751V38.8335H49.8865L54.6439 31.517L59.4013 38.8335H56.5173Z" fill="black"/>
<path d="M43.4343 7H19.0161C11.536 7 5.45044 13.785 5.45044 22.1249V25.1499H1L9.06796 38L17.1359 25.1499H12.6855V22.1249C12.6855 18.2328 15.5261 15.0666 19.0161 15.0666H43.4343C46.9243 15.0666 49.765 18.2328 49.765 22.1249V23.1332H57V22.1249C57 13.785 50.9144 7 43.4343 7ZM51.5231 21.1166C51.0718 16.5852 47.6171 13.05 43.4343 13.05H19.0161C14.5277 13.05 10.8767 17.1216 10.8767 22.1249V27.1665H13.6613L9.06796 34.483L4.47462 27.1665H7.2592V22.1249C7.2592 14.8972 12.5335 9.01665 19.0161 9.01665H43.4343C49.613 9.01665 54.6929 14.3578 55.1569 21.1166H51.5231Z" fill="black"/>
</svg>
