<svg width="67" height="67" viewBox="0 0 67 67" fill="none" xmlns="http://www.w3.org/2000/svg">
<path opacity="0.6" d="M47.8162 42.0897H38.5393V62.1897H47.8162V42.0897Z" fill="#FFBE5A"/>
<path opacity="0.6" d="M57.7804 24.5094C62.303 24.5094 65.9692 20.8431 65.9692 16.3205C65.9692 11.7979 62.303 8.13162 57.7804 8.13162C53.2578 8.13162 49.5915 11.7979 49.5915 16.3205C49.5915 20.8431 53.2578 24.5094 57.7804 24.5094Z" fill="#FFBE5A"/>
<path d="M53.3709 18.4966C53.1991 18.4393 53.0846 18.3821 52.9701 18.3248L52.7983 18.2103V17.9812L52.9128 16.8932L52.9701 16.4923L53.3137 16.6641C53.3709 16.6641 53.4282 16.7214 53.4855 16.7214C53.5427 16.7214 53.6 16.7786 53.6573 16.7786C53.7718 16.8359 53.9436 16.8932 54.0581 16.8932C54.1726 16.9504 54.3444 16.9504 54.459 17.0077C54.5735 17.0077 54.688 17.065 54.8026 17.065C54.9171 17.065 55.0316 17.065 55.1462 17.1222C55.2034 17.1222 55.3179 17.1222 55.3752 17.1222C55.4325 17.1222 55.547 17.1222 55.6043 17.1222C55.7188 17.1222 55.8333 17.1222 55.8906 17.065C56.0051 17.065 56.0624 17.0077 56.1769 16.9504C56.2915 16.8932 56.3487 16.8359 56.406 16.7786C56.4632 16.7214 56.5205 16.6641 56.5778 16.5496C56.635 16.4923 56.635 16.3778 56.6923 16.3205C56.6923 16.206 56.6923 16.1487 56.6923 16.0342C56.6923 15.9197 56.6923 15.8624 56.635 15.7479C56.5778 15.6906 56.5778 15.5761 56.5205 15.5188C56.4632 15.4615 56.406 15.4043 56.3487 15.347C56.2915 15.2897 56.2342 15.2325 56.1197 15.1752C56.0624 15.1179 55.9479 15.0607 55.8906 15.0607C55.8333 15.0034 55.7188 15.0034 55.6043 14.9462C55.4325 14.8889 55.2607 14.8316 55.0889 14.7171C54.9171 14.6598 54.7453 14.5453 54.5735 14.488C54.4017 14.4308 54.2299 14.3162 54.1154 14.2017C54.0009 14.0872 53.8291 14.0299 53.7145 13.8581C53.6 13.7436 53.4855 13.6291 53.3709 13.5145C53.2564 13.4 53.1991 13.2282 53.0846 13.1137C53.0273 12.9419 52.9701 12.7701 52.9128 12.5983C52.8556 12.4265 52.8556 12.2547 52.8556 12.0829C52.8556 11.8538 52.8556 11.6821 52.9128 11.453C52.9701 11.2812 53.0273 11.0521 53.0846 10.8803C53.1419 10.7085 53.2564 10.5368 53.3709 10.365C53.4855 10.1932 53.6 10.0786 53.7718 9.90684C53.9436 9.79231 54.0581 9.67778 54.2299 9.56325C54.4017 9.44872 54.5735 9.39145 54.7453 9.33419H54.8026V8.36068V8.07436H55.0889H56.0051H56.2915V8.36068V9.27692H56.406C56.5205 9.27692 56.5778 9.33419 56.6923 9.33419C56.8068 9.33419 56.9214 9.39145 56.9786 9.39145C57.0359 9.39145 57.1504 9.44872 57.2077 9.44872C57.265 9.44872 57.3222 9.50598 57.4368 9.50598L57.6658 9.56325L57.6085 9.79231L57.494 10.8231L57.4368 11.1667L57.0932 11.0521C57.0359 11.0521 56.9786 10.9949 56.8641 10.9949C56.8068 10.9949 56.7496 10.9376 56.635 10.9376C56.5205 10.9376 56.406 10.8803 56.2915 10.8803C56.1769 10.8803 56.0624 10.8231 55.9479 10.8231C55.8906 10.8231 55.7761 10.8231 55.7188 10.8231C55.6615 10.8231 55.6043 10.8231 55.4897 10.8231C55.3752 10.8231 55.2607 10.8231 55.1462 10.8803C55.0316 10.9376 54.9744 10.9376 54.8598 10.9949C54.8026 11.0521 54.688 11.1094 54.6308 11.1667C54.5735 11.2239 54.5162 11.3385 54.5162 11.3957C54.459 11.453 54.459 11.5675 54.459 11.6821C54.459 11.7966 54.459 11.8538 54.459 11.9684C54.459 12.0829 54.5162 12.1402 54.5162 12.2547C54.5735 12.312 54.5735 12.4265 54.6308 12.4838C54.688 12.541 54.7453 12.5983 54.8026 12.6556C54.8598 12.7128 54.9744 12.7701 55.0316 12.8274C55.0889 12.8846 55.2034 12.8846 55.2607 12.9419C55.3752 12.9991 55.4325 12.9991 55.547 13.0564C55.7188 13.1137 55.8906 13.1709 56.0624 13.2855C56.2342 13.3427 56.406 13.4573 56.5778 13.5145C56.7496 13.5718 56.8641 13.6863 57.0359 13.8009C57.2077 13.9154 57.3222 14.0299 57.4368 14.1444C57.5513 14.259 57.6658 14.3735 57.7803 14.488C57.8949 14.6026 57.9521 14.7744 58.0094 14.8889C58.0667 15.0607 58.1239 15.2325 58.1812 15.347C58.2385 15.5188 58.2385 15.6906 58.2385 15.8624C58.2385 16.0915 58.2385 16.2632 58.1812 16.4923C58.1239 16.7214 58.0667 16.8932 58.0094 17.065C57.9521 17.2368 57.8376 17.4085 57.7231 17.5803C57.6085 17.7521 57.494 17.8667 57.3222 17.9812C57.1504 18.0957 56.9786 18.2103 56.8068 18.3248C56.635 18.4393 56.406 18.4966 56.2342 18.5538H56.1769V19.5274V19.8137H55.8906H54.9744H54.688V19.5274V18.6111H54.5735C54.4017 18.6111 54.2299 18.5538 54.0581 18.5538C53.8863 18.4966 53.7145 18.4966 53.6 18.4393C53.6573 18.5538 53.4855 18.4966 53.3709 18.4966Z" fill="black"/>
<path d="M55.6043 23.2496C60.7008 23.2496 64.8239 19.1265 64.8239 14.0299C64.8239 8.93333 60.7008 4.81026 55.6043 4.81026C50.5077 4.81026 46.3846 8.9906 46.3846 14.0872C46.3846 19.1838 50.5077 23.2496 55.6043 23.2496ZM55.6043 6.92906C59.5556 6.92906 62.7624 10.1359 62.7624 14.0872C62.7624 18.0385 59.5556 21.2453 55.6043 21.2453C51.653 21.2453 48.4462 18.0385 48.4462 14.0872C48.4462 10.1359 51.653 6.92906 55.6043 6.92906Z" fill="#231F20"/>
<path d="M11.7966 38.9402C12.0256 38.9402 12.1974 38.8829 12.3692 38.7684L26.0556 28.9761L39.2838 34.4735C39.6273 34.588 40.0282 34.588 40.3145 34.359L50.9658 25.941C51.4239 25.5974 51.4812 24.9675 51.1376 24.5094C50.794 24.0513 50.1641 23.994 49.706 24.3376L39.5128 32.412L26.3419 26.9145C25.9983 26.8 25.6547 26.8 25.3684 27.0291L11.2239 37.1077C10.7658 37.4513 10.6513 38.0812 10.9949 38.5393C11.1667 38.8257 11.5103 38.9402 11.7966 38.9402Z" fill="#231F20"/>
<path d="M65.9692 59.0402H61.2735V29.8351C61.2735 29.2624 60.8154 28.8043 60.2427 28.8043H50.9658C50.3932 28.8043 49.935 29.2624 49.935 29.8351V59.0402H46.4991V39.9137C46.4991 39.341 46.041 38.8829 45.4684 38.8829H36.2487C35.6761 38.8829 35.2179 39.341 35.2179 39.9137V59.0402H31.7821V38.4248C31.7821 37.8521 31.3239 37.394 30.7513 37.394H21.4744C20.9017 37.394 20.4436 37.8521 20.4436 38.4248V59.0402H17.0077V44.3231C17.0077 43.7504 16.5496 43.2923 15.9769 43.2923H6.75727C6.18462 43.2923 5.7265 43.7504 5.7265 44.3231V59.0402H1.03077C0.45812 59.0402 0 59.4983 0 60.0709C0 60.6436 0.45812 61.1017 1.03077 61.1017H6.75727H16.0342H21.4744H30.7513H36.1915H45.5256H50.9658H60.2427H65.9692C66.5419 61.1017 67 60.6436 67 60.0709C67 59.4983 66.4846 59.0402 65.9692 59.0402ZM51.9966 30.8086H59.2692V59.0402H51.9966V30.8086ZM37.2222 40.9445H44.4949V59.0402H37.2222V40.9445ZM22.5051 39.3983H29.7778V58.9829H22.5051V39.3983ZM7.78803 45.2966H15.0607V58.9829H7.78803V45.2966Z" fill="#231F20"/>
</svg>
