<svg width="31" height="31" viewBox="0 0 31 31" fill="none" xmlns="http://www.w3.org/2000/svg">
<path d="M22.6085 0H8.3914C3.76431 0 0 3.76431 0 8.3914V22.6088C0 27.2356 3.76431 30.9999 8.3914 30.9999H22.6088C27.2356 30.9999 30.9999 27.2356 30.9999 22.6088V8.3914C30.9999 3.76431 27.2356 0 22.6085 0V0ZM29.1826 22.6088C29.1826 26.2335 26.2335 29.1826 22.6085 29.1826H8.3914C4.7664 29.1826 1.81735 26.2335 1.81735 22.6088V8.3914C1.81735 4.7664 4.7664 1.81735 8.3914 1.81735H22.6088C26.2335 1.81735 29.1826 4.7664 29.1826 8.3914V22.6088Z" fill="black"/>
<path d="M15.5 7.02368C10.8261 7.02368 7.02368 10.8261 7.02368 15.5C7.02368 20.1739 10.8261 23.9763 15.5 23.9763C20.1739 23.9763 23.9763 20.1739 23.9763 15.5C23.9763 10.8261 20.1739 7.02368 15.5 7.02368ZM15.5 22.159C11.8284 22.159 8.84103 19.1718 8.84103 15.5C8.84103 11.8284 11.8284 8.84103 15.5 8.84103C19.1718 8.84103 22.1589 11.8284 22.1589 15.5C22.1589 19.1718 19.1718 22.159 15.5 22.159Z" fill="black"/>
<path d="M24.179 4.01343C22.7977 4.01343 21.6743 5.13709 21.6743 6.51808C21.6743 7.8993 22.7977 9.02296 24.179 9.02296C25.5602 9.02296 26.6838 7.8993 26.6838 6.51808C26.6838 5.13685 25.5602 4.01343 24.179 4.01343ZM24.179 7.20538C23.8001 7.20538 23.4917 6.89697 23.4917 6.51808C23.4917 6.13895 23.8001 5.83078 24.179 5.83078C24.5581 5.83078 24.8665 6.13895 24.8665 6.51808C24.8665 6.89697 24.5581 7.20538 24.179 7.20538Z" fill="black"/>
</svg>
