<svg width="31" height="20" viewBox="0 0 31 20" fill="none" xmlns="http://www.w3.org/2000/svg">
<path d="M27.6541 13.2633L27.6373 13.2463C27.3726 12.9809 26.5619 12.1235 26.2885 11.7489C25.9675 11.2814 26.0415 10.9751 26.2821 10.5161C26.586 9.93606 27.195 9.04636 27.8395 8.10424C29.9038 5.08771 31.2365 2.99942 30.9622 1.51608L30.8143 0.723779L23.1909 0.727376C23.1641 0.805501 22.7663 2.70439 21.0876 5.93783C19.8703 8.28234 19.0718 9.01887 18.7906 9.1489L18.7471 9.13451C18.6555 9.01167 18.4957 8.68015 18.4299 7.82567C18.3613 6.93057 18.4221 5.84685 18.481 4.79885C18.5498 3.56993 18.6092 2.50857 18.467 1.74916L18.2355 0.51202C17.9557 0.463449 16.9314 0.0340204 14.0774 0.00138275C11.6066 -0.0261151 10.8807 0.361681 10.5243 0.703476L9.34527 1.83397L10.8355 2.37879C11.4027 2.58618 11.5909 2.82543 11.7454 4.01144C11.8461 4.78446 11.8989 6.08354 11.7901 7.24333C11.6338 8.9063 11.2589 9.21572 11.2395 9.23217C11.1749 9.20827 10.6274 8.94794 9.67686 6.7643C9.01746 5.24987 8.43943 3.4584 8.01702 2.15032C7.53359 0.652336 7.62063 0.971259 7.37537 0.263511L0 0.263254L0.47728 1.60474C2.46705 7.20273 4.29268 11.5744 6.73584 14.7143C9.43514 18.1833 12.7898 19.9997 17.3086 19.9997H18.2168V19.0129C18.2168 18.0903 18.287 17.426 18.4377 16.9223C18.5297 16.6155 18.652 16.3618 18.7804 16.0958C18.971 15.7042 19.1574 15.5364 19.2591 15.5114C19.3513 15.4886 19.5136 15.5621 19.6933 15.7078C20.2094 16.1259 20.619 16.6753 21.0528 17.2572C21.6786 18.0967 22.3257 18.9646 23.3524 19.5328C23.9134 19.8432 24.9418 20 25.5077 20C25.6574 20 30.9934 19.9997 31 19.9997L30.961 18.9723C30.9028 17.436 29.79 15.515 27.6541 13.2633ZM25.543 18.0261H25.5283C25.1381 18.033 24.3933 17.894 24.1767 17.7742C23.4941 17.3964 23.017 16.7563 22.4643 16.0151C21.9792 15.3642 21.4776 14.6911 20.7792 14.1255C20.2144 13.6678 19.7014 13.5339 19.2941 13.5339C19.1314 13.5339 18.9852 13.5552 18.8599 13.5861C18.3871 13.7017 17.7109 14.0713 17.1733 15.1761C17.0217 15.4904 16.8498 15.8463 16.7105 16.312C16.5645 16.7992 16.4737 17.3407 16.4304 17.9993C13.0251 17.7891 10.3679 16.3253 8.12298 13.4401C6.03577 10.7574 4.39367 7.0051 2.6546 2.23616C2.78043 2.23616 5.93336 2.23667 6.11949 2.23667C6.17649 2.41065 6.23798 2.60134 6.30326 2.80333C6.75854 4.21446 7.38223 6.14676 8.11707 7.79457C9.1693 10.1542 10.1302 11.2066 11.2326 11.2066C11.783 11.2066 12.2766 10.9532 12.66 10.4734C13.2066 9.78957 13.5239 8.66088 13.6304 7.02258C13.7143 5.73069 13.6363 4.44395 13.5441 3.73492C13.4679 3.15155 13.3593 2.53915 13.0944 1.99048C14.2233 1.93522 15.7349 2.0226 16.6925 2.17191C16.7795 2.68692 16.7228 3.6992 16.6679 4.67858C16.5352 7.04442 16.3983 9.48581 17.5508 10.6281C17.7535 10.8291 17.9685 10.9368 17.9746 10.9411L18.5612 11.1367C18.7875 11.0609 20.0985 11.7836 22.5809 7.07629C23.3763 5.56802 24.1168 3.83 24.5156 2.69488C25.4403 2.69283 28.5909 2.69668 28.961 2.6972C28.4367 3.95104 27.1941 5.73943 26.3819 6.92646C25.6738 7.9611 25.0624 8.85465 24.7036 9.53927C24.0371 10.8111 24.1492 11.9447 24.8434 12.9446L24.8543 12.96C25.2417 13.4959 26.1983 14.4878 26.3968 14.6878C27.8343 16.2043 28.527 17.2937 28.8567 18.0258L25.543 18.0261Z" fill="black"/>
</svg>
