<svg width="48" height="48" viewBox="0 0 48 48" fill="none" xmlns="http://www.w3.org/2000/svg">
<circle cx="24" cy="24" r="24" fill="#F4BB66"/>
<g clip-path="url(#clip0)">
<path d="M34.5292 30.5962L31.286 27.3527C30.6401 26.7093 29.5703 26.7289 28.9019 27.3976L27.268 29.0311C27.1647 28.9742 27.0579 28.9148 26.9456 28.8517C25.9138 28.28 24.5016 27.4965 23.0156 26.0093C21.5251 24.5191 20.7408 23.1047 20.1674 22.0723C20.1069 21.9629 20.0489 21.8574 19.9916 21.7573L21.0882 20.6623L21.6273 20.1226C22.2968 19.4529 22.3153 18.3834 21.6708 17.7382L18.4277 14.4944C17.7833 13.85 16.713 13.8696 16.0435 14.5392L15.1295 15.4585L15.1545 15.4833C14.848 15.8744 14.5919 16.3254 14.4013 16.8118C14.2256 17.2748 14.1162 17.7166 14.0662 18.1593C13.638 21.7095 15.2603 24.954 19.6631 29.3568C25.749 35.4423 30.6535 34.9826 30.8651 34.9602C31.3259 34.9051 31.7675 34.795 32.2163 34.6207C32.6985 34.4323 33.1492 34.1766 33.54 33.8708L33.56 33.8885L34.486 32.9818C35.1541 32.3122 35.1733 31.2424 34.5292 30.5962Z" fill="black"/>
</g>
<defs>
<clipPath id="clip0">
<rect width="21" height="21" fill="white" transform="translate(14 14)"/>
</clipPath>
</defs>
</svg>
