<svg width="306" height="109" viewBox="0 0 306 109" fill="none" xmlns="http://www.w3.org/2000/svg">
<g clip-path="url(#clip0)">
<path d="M123.23 56.7401V0.72168H137.251C142.913 0.72168 147.4 2.12514 150.712 4.93208C154.05 7.73901 155.719 11.535 155.719 16.3202C155.719 19.5816 154.905 22.4018 153.276 24.781C151.646 27.1603 149.31 28.9381 146.265 30.1142C148.054 31.2905 149.804 32.8944 151.513 34.9261C153.222 36.9579 155.626 40.4999 158.724 45.5523C160.673 48.7336 162.236 51.1261 163.411 52.7302L166.376 56.7401H156.841L154.397 53.0508C154.317 52.9172 154.157 52.6901 153.917 52.3692L152.354 50.1637L149.87 46.0735L147.186 41.7029C145.53 39.4038 144.008 37.5726 142.619 36.2093C141.257 34.8459 140.015 33.8701 138.894 33.282C137.799 32.6672 135.943 32.3598 133.325 32.3598H131.242V56.7401H123.23ZM133.646 7.53851H131.242V25.2221H134.287C138.346 25.2221 141.124 24.8746 142.619 24.1796C144.142 23.4846 145.317 22.4419 146.145 21.0519C146.999 19.635 147.427 18.0311 147.427 16.24C147.427 14.4756 146.959 12.885 146.024 11.4682C145.09 10.0246 143.768 9.00881 142.058 8.42069C140.376 7.83257 137.572 7.53851 133.646 7.53851Z" fill="#69BACC"/>
<path d="M169.794 0.72168H177.806V56.7401H169.794V0.72168Z" fill="#69BACC"/>
<path d="M235.587 43.748V52.5698C229.711 55.7777 222.927 57.3817 215.236 57.3817C208.986 57.3817 203.685 56.1252 199.331 53.6123C194.978 51.0994 191.533 47.6376 188.996 43.2268C186.458 38.8158 185.19 34.044 185.19 28.9114C185.19 20.7579 188.088 13.901 193.883 8.34059C199.705 2.7802 206.876 0 215.396 0C221.272 0 227.801 1.53713 234.986 4.61138V13.2327C228.441 9.49008 222.045 7.61882 215.796 7.61882C209.387 7.61882 204.059 9.65049 199.812 13.7139C195.592 17.7505 193.483 22.8163 193.483 28.9114C193.483 35.0598 195.566 40.1124 199.732 44.0687C203.898 48.0252 209.226 50.0035 215.716 50.0035C222.5 50.0035 229.123 47.9184 235.587 43.748Z" fill="#69BACC"/>
<path d="M290.804 43.748V52.5698C284.928 55.7777 278.144 57.3817 270.452 57.3817C264.203 57.3817 258.902 56.1252 254.548 53.6123C250.195 51.0994 246.749 47.6376 244.212 43.2268C241.675 38.8158 240.407 34.044 240.407 28.9114C240.407 20.7579 243.304 13.901 249.099 8.34059C254.923 2.7802 262.093 0 270.613 0C276.489 0 283.018 1.53713 290.203 4.61138V13.2327C283.659 9.49008 277.262 7.61882 271.014 7.61882C264.604 7.61882 259.274 9.65049 255.03 13.7139C250.809 17.7505 248.698 22.8163 248.698 28.9114C248.698 35.0598 250.783 40.1124 254.949 44.0687C259.115 48.0252 264.443 50.0035 270.933 50.0035C277.717 50.0035 284.34 47.9184 290.804 43.748Z" fill="#69BACC"/>
<path d="M297.867 0.72168H305.88V56.7401H297.867V0.72168Z" fill="#69BACC"/>
<path d="M108.15 0.747314H0V109H108.15V0.747314Z" fill="white"/>
<path d="M108.15 55.5929C107.884 85.2557 83.7765 109.253 54.0751 109.253H108.15V55.5929ZM108.15 1H54.0751C83.8431 1 107.884 24.997 108.15 54.6598V1ZM54.0751 3.46635C25.5725 3.46635 2.46401 26.5967 2.46401 55.1264C2.46401 83.656 25.5725 106.786 54.0751 106.786C82.5778 106.786 105.686 83.656 105.686 55.1264C105.686 26.5967 82.5778 3.46635 54.0751 3.46635ZM70.1245 8.93231C70.1912 9.26561 72.522 57.7927 70.3909 64.8585C68.1267 60.3924 59.8022 6.8659 59.7358 6.53263C63.3984 6.99923 66.8613 7.73246 70.1245 8.93231ZM47.4156 6.7326C47.5487 7.06588 47.682 7.39918 47.8153 7.73248C47.9484 8.06575 48.0816 8.4657 48.2147 8.86566C52.3436 20.0642 61.7336 45.0611 61.3339 54.5264C60.9343 54.793 44.2191 27.5299 37.2266 11.6653C37.0933 11.332 36.8936 10.9321 36.6939 10.5988C36.5606 10.2655 36.3609 9.99885 36.2276 9.66555C39.7571 8.26573 43.4864 7.26587 47.4156 6.7326ZM23.1086 17.3312C23.3749 17.5312 23.6413 17.7978 23.9076 18.0645C24.174 18.3311 24.4404 18.5977 24.7734 18.8644C33.2309 26.2634 46.8163 42.7945 47.9483 47.4606C47.349 47.8606 29.5017 36.4621 16.3158 27.7966C15.9828 27.5967 15.6498 27.3965 15.3168 27.1966C14.9839 26.9967 14.7175 26.8633 14.3845 26.6634C16.8485 23.1972 19.8453 20.0642 23.1086 17.3312ZM7.72501 39.7284C8.05799 39.7951 50.6788 53.5265 56.872 61.1255C56.6056 61.5922 5.86035 50.0602 5.52738 49.9938C5.92695 46.5276 6.7261 43.1278 7.72501 39.7284ZM5.79377 62.2587C6.12673 62.2587 52.4103 65.1251 63.7314 70.0578C59.0698 70.791 9.19011 73.3906 8.79054 73.3906C7.19226 69.7912 6.25993 66.0582 5.79377 62.2587ZM14.5843 83.7894C14.9173 83.7227 58.204 75.1904 67.9934 77.1901C64.6638 79.0566 23.7077 92.8547 23.3749 92.9882C20.1117 90.4552 17.2481 87.3221 14.5843 83.7894ZM54.0751 103.987C47.2159 103.987 40.6229 102.587 34.696 99.9873C35.0291 99.7874 35.4285 99.5872 35.8281 99.3206C36.2276 99.054 36.6272 98.8541 37.0933 98.5875C46.2835 93.1881 68.8592 79.8565 72.7217 89.6552C73.3877 90.855 74.3865 94.0546 75.1192 96.721C75.2523 97.121 75.3189 97.5208 75.452 97.8541C75.5186 98.1875 75.6519 98.5875 75.7186 98.8541C69.1922 102.187 61.8667 103.987 54.0751 103.987ZM80.9129 14.265C84.6422 16.6647 87.3727 18.9977 90.0363 21.9973C90.0363 22.4638 80.1803 69.7912 77.5831 72.9241C76.451 58.8592 80.3802 13.665 80.9129 14.265ZM97.6282 35.3956C97.8281 34.9289 97.9612 34.4623 98.1609 33.9958C101.224 40.395 102.956 47.594 102.956 55.1264C102.956 71.3242 95.031 85.7224 82.9108 94.5878C82.8441 94.188 82.7775 93.8547 82.711 93.4547C82.6444 92.9882 82.5778 92.5881 82.5111 92.1216C80.5799 74.7239 91.7678 50.527 97.0288 36.9288C97.2287 36.3954 97.4284 35.8621 97.6282 35.3956ZM0 55.1264C0 25.1969 24.2406 1 54.0751 1H0V55.1264ZM54.0751 109.253C24.2406 109.253 0 85.0558 0 55.1264V109.253H54.0751Z" fill="#69BACC"/>
<path d="M306 64.3101H123.053V109H306V64.3101Z" fill="#69BACC"/>
<path d="M142.981 73.5378C145.75 73.5378 148.005 74.2069 149.746 75.5803C151.487 76.9537 152.357 78.7145 152.357 80.898C152.357 82.3769 151.922 83.6799 151.051 84.7716C150.181 85.8633 148.915 86.7436 147.214 87.3776C148.163 87.8354 148.994 88.434 149.706 89.2088C150.418 89.9835 151.328 91.2865 152.436 93.1177C154.216 96.287 155.561 98.4705 156.432 99.6677H150.102C149.667 99.1042 149.073 98.1886 148.322 96.921C146.7 94.1388 145.513 92.2725 144.761 91.2865C144.01 90.3356 143.258 89.6313 142.586 89.2439C141.913 88.8565 141.082 88.6452 140.172 88.6452H138.115V99.6677H132.418V73.5378H142.981ZM141.715 84.7012C143.218 84.7012 144.366 84.3842 145.196 83.7152C146.027 83.0459 146.462 82.1656 146.462 81.0035C146.462 79.8062 146.027 78.9257 145.196 78.3271C144.366 77.7285 143.139 77.4468 141.597 77.4468H138.076V84.7363H141.715V84.7012Z" fill="white"/>
<path d="M178.148 73.5378V77.4819H165.722V84.3489H177.63V88.2932H165.722V95.7237H178.444V99.6677H160.434V73.5378H178.148Z" fill="white"/>
<path d="M195.708 73.5378C198.333 73.5378 200.885 74.155 203.328 75.3895V79.7787C200.521 78.2015 198.041 77.3783 195.854 77.3783C194.541 77.3783 193.521 77.6184 192.755 78.0986C192.026 78.5787 191.625 79.2303 191.625 80.0188C191.625 80.9791 192.318 81.8707 193.703 82.6936C194.104 82.9336 195.599 83.6195 198.187 84.7511C200.411 85.7454 202.015 86.8428 203 88.0431C203.984 89.2432 204.458 90.6835 204.458 92.3637C204.458 94.5583 203.619 96.3073 201.942 97.6445C200.265 98.9819 198.114 99.6677 195.453 99.6677C193.74 99.6677 192.245 99.4964 191.005 99.119C189.766 98.7761 188.344 98.159 186.813 97.2674V92.4323C189.693 94.6956 192.427 95.8272 194.979 95.8272C196.255 95.8272 197.276 95.5528 198.078 95.0385C198.88 94.524 199.245 93.8382 199.245 92.9466C199.245 91.7807 198.552 90.8207 197.203 90.0662C196.073 89.4832 194.614 88.7974 192.792 87.9745C190.677 87.0486 189.073 85.9856 188.016 84.7853C186.958 83.5852 186.448 82.1449 186.448 80.5675C186.448 78.4415 187.287 76.727 189 75.4582C190.714 74.155 192.937 73.5378 195.708 73.5378Z" fill="white"/>
<path d="M223.504 73.5378C226.325 73.5378 228.849 74.0872 231.083 75.1859C233.316 76.2846 235.108 77.8298 236.463 79.8899C237.78 81.9502 238.477 84.1821 238.477 86.62C238.477 88.9892 237.818 91.2211 236.537 93.2468C235.256 95.2727 233.462 96.8523 231.155 97.9852C228.886 99.1184 226.325 99.6677 223.469 99.6677C220.649 99.6677 218.088 99.0839 215.781 97.951C213.475 96.8178 211.681 95.2384 210.4 93.2468C209.119 91.2554 208.46 89.0235 208.46 86.62C208.46 84.285 209.119 82.0876 210.4 80.0275C211.681 77.9672 213.439 76.3878 215.708 75.2546C217.979 74.0872 220.577 73.5378 223.504 73.5378ZM213.914 86.62C213.914 88.3023 214.317 89.8475 215.122 91.1867C215.928 92.5259 217.062 93.5901 218.528 94.3113C219.991 95.0666 221.638 95.41 223.469 95.41C226.25 95.41 228.557 94.586 230.349 92.9379C232.144 91.2898 233.059 89.1953 233.059 86.5856C233.059 84.9031 232.656 83.3581 231.852 82.0189C231.046 80.6797 229.912 79.6152 228.411 78.8599C226.945 78.1045 225.299 77.7612 223.432 77.7612C221.601 77.7612 219.917 78.139 218.453 78.8943C216.989 79.6497 215.855 80.6797 215.049 82.0189C214.317 83.3923 213.914 84.9031 213.914 86.62Z" fill="white"/>
<path d="M255.021 73.5378C257.794 73.5378 260.052 74.2069 261.797 75.5803C263.539 76.9537 264.412 78.7145 264.412 80.898C264.412 82.3769 263.977 83.6799 263.103 84.7716C262.232 85.8633 260.965 86.7436 259.259 87.3776C260.211 87.8354 261.043 88.434 261.757 89.2088C262.47 89.9835 263.382 91.2865 264.491 93.1177C266.274 96.287 267.62 98.4705 268.494 99.6677H262.154C261.716 99.1042 261.124 98.1886 260.37 96.921C258.745 94.1388 257.556 92.2725 256.803 91.2865C256.051 90.3356 255.298 89.6313 254.625 89.2439C253.95 88.8565 253.118 88.6452 252.207 88.6452H250.147V99.6677H244.48V73.5378H255.021ZM253.751 84.7012C255.258 84.7012 256.406 84.3842 257.24 83.7152C258.072 83.0459 258.508 82.1656 258.508 81.0035C258.508 79.8062 258.072 78.9257 257.24 78.3271C256.406 77.7285 255.178 77.4468 253.634 77.4468H250.108V84.7363H253.751V84.7012Z" fill="white"/>
<path d="M296.509 73.5378V77.4819H287.061V99.6677H281.943V77.4819H272.495V73.5378H296.509Z" fill="white"/>
</g>
<defs>
<clipPath id="clip0">
<rect width="306" height="109" fill="white"/>
</clipPath>
</defs>
</svg>
